# Blender v2.78 (sub 0) OBJ File: 'Demo.blend'
# www.blender.org
v -10.000000 0.000000 10.000000
v 10.000000 0.000000 10.000000
v -10.000000 0.000000 -10.000000
v 10.000000 0.000000 -10.000000
v -10.000000 0.000000 0.000000
v 10.000000 0.000000 0.000000
v 0.000000 0.000000 10.000000
v -3.500000 0.000000 3.500000
v 0.000000 0.000000 -10.000000
v -6.500000 0.000000 3.500000
v -6.500000 0.000000 6.500000
v -3.500000 0.000000 -3.500000
v -3.500000 0.000000 6.500000
v -3.500000 0.000000 -6.500000
v -6.500000 0.000000 -6.500000
v -6.500000 0.000000 -3.500000
v 3.500000 0.000000 3.500000
v 3.500000 0.000000 6.500000
v 6.500000 0.000000 6.500000
v 3.500000 0.000000 -3.500000
v 6.500000 0.000000 3.500000
v 6.500000 0.000000 -3.500000
v 6.500000 0.000000 -6.500000
v 0.000000 0.000000 0.000000
v 3.500000 0.000000 -6.500000
v -6.500000 2.000000 3.500000
v -6.500000 2.000000 6.500000
v 3.500000 2.000000 6.500000
v 6.500000 2.000000 6.500000
v 6.500000 2.000000 -3.500000
v 6.500000 2.000000 -6.500000
v -3.500000 2.000000 -6.500000
v -6.500000 2.000000 -6.500000
v -6.500000 2.000000 -3.500000
v 6.500000 2.000000 3.500000
v -3.500000 2.000000 6.500000
v 3.500000 2.000000 -6.500000
v -3.500000 2.000000 3.500000
v -3.500000 2.000000 -3.500000
v 3.500000 2.000000 3.500000
v 3.500000 2.000000 -3.500000
v -10.000000 1.000000 10.000000
v 10.000000 1.000000 10.000000
v -10.000000 1.000000 -10.000000
v 10.000000 1.000000 -10.000000
v -10.000000 1.000000 0.000000
v 10.000000 1.000000 0.000000
v 0.000000 1.000000 10.000000
v 0.000000 1.000000 -10.000000
vn -1.0000 0.0000 0.0000
vn 0.0000 0.0000 1.0000
vn 1.0000 0.0000 0.0000
vn 0.0000 1.0000 0.0000
vn 0.0000 0.0000 -1.0000
s off
f 20//1 37//1 25//1
f 18//1 40//1 17//1
f 19//2 28//2 18//2
f 14//3 39//3 12//3
f 11//4 5//4 1//4
f 10//4 24//4 5//4
f 13//4 1//4 7//4
f 8//4 7//4 24//4
f 15//4 9//4 3//4
f 16//4 3//4 5//4
f 12//4 5//4 24//4
f 14//4 24//4 9//4
f 19//4 7//4 2//4
f 21//4 2//4 6//4
f 17//4 6//4 24//4
f 18//4 24//4 7//4
f 23//4 6//4 4//4
f 22//4 24//4 6//4
f 25//4 4//4 9//4
f 20//4 9//4 24//4
f 30//4 37//4 41//4
f 29//4 40//4 28//4
f 36//4 26//4 27//4
f 39//4 33//4 34//4
f 23//3 30//3 22//3
f 25//5 31//5 23//5
f 15//5 32//5 14//5
f 16//1 33//1 15//1
f 21//3 29//3 19//3
f 10//5 38//5 8//5
f 13//2 27//2 11//2
f 12//2 34//2 16//2
f 22//2 41//2 20//2
f 11//1 26//1 10//1
f 8//3 36//3 13//3
f 17//5 35//5 21//5
f 7//5 43//5 2//5
f 9//2 44//2 3//2
f 2//1 47//1 6//1
f 4//2 49//2 9//2
f 6//1 45//1 4//1
f 1//5 48//5 7//5
f 5//3 42//3 1//3
f 3//3 46//3 5//3
f 20//1 41//1 37//1
f 18//1 28//1 40//1
f 19//2 29//2 28//2
f 14//3 32//3 39//3
f 11//4 10//4 5//4
f 10//4 8//4 24//4
f 13//4 11//4 1//4
f 8//4 13//4 7//4
f 15//4 14//4 9//4
f 16//4 15//4 3//4
f 12//4 16//4 5//4
f 14//4 12//4 24//4
f 19//4 18//4 7//4
f 21//4 19//4 2//4
f 17//4 21//4 6//4
f 18//4 17//4 24//4
f 23//4 22//4 6//4
f 22//4 20//4 24//4
f 25//4 23//4 4//4
f 20//4 25//4 9//4
f 30//4 31//4 37//4
f 29//4 35//4 40//4
f 36//4 38//4 26//4
f 39//4 32//4 33//4
f 23//3 31//3 30//3
f 25//5 37//5 31//5
f 15//5 33//5 32//5
f 16//1 34//1 33//1
f 21//3 35//3 29//3
f 10//5 26//5 38//5
f 13//2 36//2 27//2
f 12//2 39//2 34//2
f 22//2 30//2 41//2
f 11//1 27//1 26//1
f 8//3 38//3 36//3
f 17//5 40//5 35//5
f 7//5 48//5 43//5
f 9//2 49//2 44//2
f 2//1 43//1 47//1
f 4//2 45//2 49//2
f 6//1 47//1 45//1
f 1//5 42//5 48//5
f 5//3 46//3 42//3
f 3//3 44//3 46//3
